<?xml version="1.0" encoding="utf-8"?>
<!-- Generator: Adobe Illustrator 24.0.3, SVG Export Plug-In . SVG Version: 6.00 Build 0)  -->
<svg version="1.1" id="Layer_1" xmlns="http://www.w3.org/2000/svg" xmlns:xlink="http://www.w3.org/1999/xlink" x="0px" y="0px"
	 viewBox="0 0 624.1 202.8" style="enable-background:new 0 0 624.1 202.8;" xml:space="preserve">
<style type="text/css">
	.st0{enable-background:new    ;}
</style>
<title>khord.co</title>
<g id="Layer_2_1_">
	<g id="Layer_1-2">
		<g class="st0">
			<path d="M55.3,54.3h8.8L28,89.9l19.8,23c5.9,6.9,11.2,12.7,18.4,12.7c2.6,0,7-0.8,9.8-3.1l2.8,5.2c-4,3.5-9.9,4.3-13,4.3
				c-11.3,0-19.4-10.1-23.9-15.5L20.3,90.9v39.4h-7.1V19.5h7.1v68.7L55.3,54.3z"/>
			<path d="M152.2,86.3c0-21.6-13.9-27.4-24.9-27.4c-7.7,0-27.9,5.4-28.3,32.2v39.3h-7.1V19.5H99v52.4c5.4-14.1,18.6-19.3,28.3-19.3
				c16,0,32.1,7.7,32.1,33.7v44h-7.1V86.3z"/>
			<path d="M218.5,52.6c22.3,0,40.6,18.1,40.6,39.9c0,21.8-18.3,39.6-40.6,39.6c-22,0-40.3-17.6-40.3-39.6
				C178.3,70.5,196.5,52.6,218.5,52.6z M218.5,125.8c18.3,0,33.3-15,33.3-33.3c0-18.4-15-33.6-33.3-33.6c-18,0-33,15.2-33,33.6
				S200.6,125.8,218.5,125.8z"/>
		</g>
		<g class="st0">
			<path d="M286.5,74.4c3.4-12.7,11.5-21.8,25.4-21.8c1.9,0,4,0.3,5.6,0.6v7.1c-1.7-0.6-4.3-0.9-5.9-0.9
				c-17.2,0-24.8,17.8-25.1,41.7v29.3h-7.1V54.3h7.1V74.4z"/>
		</g>
		<g class="st0">
			<path d="M394.5,111.2c-5.6,12.4-18.1,20.9-33.3,20.9c-23.5,0-39.5-17.6-39.5-39.9c0-21.6,15.2-39.6,39.6-39.6
				c15.5,0,27.7,8.4,33.1,20.7V19.5h7.1v110.9h-7.1V111.2z M394.6,92.2c0-18.2-13.3-33.3-33.3-33.3c-20,0-32.4,15-32.4,33.3
				c0,18.7,13,33.6,32.5,33.6C380.7,125.8,394.6,110.9,394.6,92.2z"/>
		</g>
		<g class="st0">
			<path d="M432.3,119.8c3.4,0,6.2,2.8,6.2,6.1c0,3.4-2.8,6.1-6.2,6.1c-3.6,0-6.2-2.8-6.2-6.1C426.1,122.5,428.7,119.8,432.3,119.8z
				"/>
		</g>
		<g class="st0">
			<path d="M497.6,52.6c6,0,16.6,1.5,26.6,8.6l-3.6,5.1c-8.8-6.4-18-7.4-22.9-7.4c-22.6,0-36.1,14.6-36.4,33.4
				c0.5,18.9,13.8,33.4,36.4,33.4c5,0,14.1-1.1,22.9-7.4l3.6,5.1c-10.1,7.1-20.6,8.6-26.6,8.6c-27.6,0-43.1-17.5-43.5-39.4
				C454.1,70.4,469.8,52.6,497.6,52.6z"/>
		</g>
		<g class="st0">
			<path d="M575.4,52.6c22.3,0,40.6,18.1,40.6,39.9c0,21.8-18.3,39.6-40.6,39.6c-22,0-40.3-17.6-40.3-39.6
				C535.1,70.5,553.4,52.6,575.4,52.6z M575.4,125.8c18.3,0,33.3-15,33.3-33.3c0-18.4-15-33.6-33.3-33.6c-18,0-33,15.2-33,33.6
				S557.4,125.8,575.4,125.8z"/>
		</g>
		<g class="st0">
			<path d="M32.1,167.1c-1-2.3-3.4-3.7-5.8-3.7c-4.4,0-6.6,3.1-6.6,5.9c0,3.1,2.5,4.6,4.9,5.4l4.1,1.2c4,1.3,5.8,3.6,5.8,6.7
				c0,4.4-3.9,7.1-8.4,7.1c-4.2,0-7.4-1.9-8.8-4.8l1.2-0.5c1.2,2.5,3.9,4.2,7.6,4.2c3.8,0,7.1-2.3,7.1-6c0-2.6-1.5-4.5-4.9-5.6h0.1
				l-4.2-1.2c-2.9-0.9-5.9-2.7-5.9-6.5c0-3.3,2.7-7.1,7.9-7.1c2.8,0,5.7,1.5,6.9,4.5L32.1,167.1z"/>
		</g>
		<g class="st0">
			<path d="M66.3,162.2c7.7,0,14,6.3,14,13.8c0,7.6-6.3,13.7-14,13.7c-7.6,0-13.9-6.1-13.9-13.7C52.3,168.5,58.6,162.2,66.3,162.2z
				 M66.3,188.6c6.9,0,12.7-5.6,12.7-12.5c0-6.9-5.8-12.7-12.7-12.7c-6.9,0-12.6,5.8-12.6,12.7C53.7,183,59.4,188.6,66.3,188.6z"/>
		</g>
		<g class="st0">
			<path d="M109,151.2c-3.1,0-6.4,2-6.4,8.9v2.6h8.4v1.2h-8.4v25.2h-1.3V164h-4.9v-1.2h4.9v-2.6c0-7.8,4-10.1,7.7-10.1
				c4.6,0,7,2.7,7,6.1c0,0,0,0.6-0.3,1.3h-1.3c0.3-0.4,0.3-1.3,0.3-1.3C114.7,153.4,112.7,151.2,109,151.2z"/>
		</g>
		<g class="st0">
			<path d="M144.2,182.3c0.3,0.7,0.3,1.3,0.3,1.3c0,3.4-2.4,6.1-6.5,6.1c-3.3,0-6.9-1.3-6.9-8.6V164h-4.9v-1.2h4.9l0.4-8.9h0.9v8.9
				h9v1.2h-9v17.2c0,6.3,3,7.4,5.6,7.4c3.2,0,5.2-2.1,5.2-4.9c0,0,0-0.9-0.2-1.3H144.2z"/>
		</g>
		<g class="st0">
			<path d="M160.6,162.8l10.1,24.6l8.5-23.5h1.3l8.5,23.5l10.2-24.6h1.4l-10.9,26.4h-1.4l-8.5-23.4l-8.4,23.4h-1.4l-10.9-26.4H160.6
				z"/>
		</g>
		<g class="st0">
			<path d="M230.6,162.2c6.3,0,10.7,3.4,12.6,8.3v-7.7h1.3v26.4h-1.3v-7.7c-1.9,5.1-6.5,8.3-12.5,8.3c-8.4,0-13.7-6.1-13.7-13.8
				C217.1,168.4,222,162.2,230.6,162.2z M230.7,188.6c7.2,0,12.5-5.1,12.5-12.6c0-7-5-12.6-12.6-12.6c-7.8,0-12.2,5.7-12.2,12.6
				C218.4,183,223.1,188.6,230.7,188.6z"/>
		</g>
		<g class="st0">
			<path d="M268.4,170.2c1.3-4.5,4-8,9.5-8c0.5,0,1.2,0.1,1.7,0.1v1.3c-0.4-0.1-1.3-0.1-1.7-0.1c-7.8,0-9.4,8.4-9.5,15.4v10.2h-1.3
				v-26.4h1.3V170.2z"/>
		</g>
		<g class="st0">
			<path d="M318.6,185.7c-3.2,3.1-7.2,4-10.7,4c-8.9,0-14.8-6.2-14.8-13.7c0-7.6,6-13.8,14.2-13.8c6.4,0,12.5,3.7,12.9,12.5h-25.7
				c-0.1,0.5-0.1,1-0.1,1.4c0,6.8,5.3,12.5,13.4,12.5c3.2,0,6.9-0.9,9.8-3.8L318.6,185.7z M294.7,173.6h24.1
				c-0.7-7-5.9-10.2-11.5-10.2C300.6,163.4,295.8,168,294.7,173.6z"/>
			<path d="M392.4,150.7h1.3v38.5h-1.3v-7.7c-1.9,5.1-6.5,8.3-12.5,8.3c-8.4,0-13.7-6.1-13.7-13.8c0-7.7,5.3-13.7,13.7-13.7
				c6,0,10.5,3.1,12.5,8.3V150.7z M379.9,163.4c-7.6,0-12.3,5.5-12.3,12.6c0,7.1,4.7,12.6,12.3,12.6c7.2,0,12.5-5.1,12.5-12.6
				C392.4,168.4,387,163.4,379.9,163.4z"/>
			<path d="M439.5,185.7c-3.2,3.1-7.2,4-10.7,4c-8.9,0-14.8-6.2-14.8-13.7c0-7.6,6-13.8,14.2-13.8c6.4,0,12.5,3.7,12.9,12.5h-25.7
				c-0.1,0.5-0.1,1-0.1,1.4c0,6.8,5.3,12.5,13.4,12.5c3.2,0,6.9-0.9,9.8-3.8L439.5,185.7z M415.5,173.6h24.1
				c-0.7-7-5.9-10.2-11.5-10.2C421.4,163.4,416.6,168,415.5,173.6z"/>
			<path d="M473,167.1c-1-2.3-3.4-3.7-5.8-3.7c-4.4,0-6.6,3.1-6.6,5.9c0,3.1,2.5,4.6,4.9,5.4l4.1,1.2c4,1.3,5.8,3.6,5.8,6.7
				c0,4.4-3.9,7.1-8.4,7.1c-4.2,0-7.4-1.9-8.8-4.8l1.2-0.5c1.2,2.5,3.9,4.2,7.6,4.2c3.8,0,7.1-2.3,7.1-6c0-2.6-1.5-4.5-4.9-5.6h0.1
				l-4.2-1.2c-2.9-0.9-5.9-2.7-5.9-6.5c0-3.3,2.7-7.1,7.9-7.1c2.8,0,5.7,1.5,6.9,4.5L473,167.1z"/>
			<path d="M496.4,151.7c0.8,0,1.2,0.5,1.2,1.5s-0.5,1.5-1.2,1.5c-0.8,0-1.2-0.5-1.2-1.5S495.6,151.7,496.4,151.7z M495.8,162.8
				v26.4h1.3v-26.4H495.8z"/>
			<path d="M521,197.3c3.4,2.4,6.8,3.1,10.6,3.1c7.3,0,12.2-4.8,12.2-11.9v-7.1c-1.9,5.1-6.5,8.3-12.5,8.3
				c-8.4,0-13.7-6.1-13.7-13.8c0-7.5,4.9-13.7,13.6-13.7c6.3,0,10.7,3.4,12.6,8.3v-7.7h1.3v25.8c0,7.8-5.3,13.1-13.4,13.1
				c-4.1,0-7.7-0.7-11.2-3.2L521,197.3z M531.3,188.6c7.2,0,12.5-5.1,12.5-12.6c0-7-5-12.6-12.6-12.6c-7.8,0-12.2,5.7-12.2,12.6
				C519,183,523.7,188.6,531.3,188.6z"/>
			<path d="M568.9,189.2h-1.3v-26.4h1.3v6.4c2.2-5.3,7.3-7,10.2-7c5.4,0,11.5,2.4,11.5,11.7v15.3h-1.3v-15.3
				c0-8.4-5.3-10.5-10.2-10.5c-3.3,0-9.9,2.6-10.2,11.6V189.2z"/>
		</g>
	</g>
</g>
</svg>
