<?xml version="1.0" encoding="utf-8"?>
<!-- Generator: Adobe Illustrator 24.0.3, SVG Export Plug-In . SVG Version: 6.00 Build 0)  -->
<svg version="1.1" id="Layer_1" xmlns="http://www.w3.org/2000/svg" xmlns:xlink="http://www.w3.org/1999/xlink" x="0px" y="0px"
	 viewBox="0 0 275.4 181.6" style="enable-background:new 0 0 275.4 181.6;" xml:space="preserve">
<style type="text/css">
	.st0{stroke:#000000;stroke-width:2;stroke-miterlimit:10;}
</style>
<g id="SvgjsG2064" transform="matrix(1.5972445632386045,0,0,1.5972445632386045,55.721881420172316,-25.425659782313375)">
	<g>
		<path class="st0" d="M108.6,81.8c0-11.1-6.2-20.8-15.3-25.8c-1.1,1.3-2.3,2.5-3.7,3.5c8.4,3.9,14.2,12.4,14.2,22.3
			c0,3.2-4.6,6-11.6,7.5c-3.4-10.6-10.9-19.5-20.6-24.7c-1.1,1.3-2.4,2.4-3.8,3.5c12.8,6.2,21.7,19.2,21.7,34.4
			c0,4.8-6.5,8.3-11,9.3l-8-15.9l1.8,18.7c-6.3,1.5-13.7,2.3-21,2.3c-6.4,0-14.5-0.6-20.3-1.8L33,95.9l-8.2,16.5
			c-6.6-1.9-11.6-6.1-11.7-10C12.8,87.4,22,74.3,34.8,68.1c-1.4-1-2.6-2.2-3.8-3.5c-9.7,5.2-17.2,14.1-20.6,24.7
			c-7-1.5-11.6-4.3-11.6-7.5c0-9.9,5.8-18.4,14.2-22.3c-1.4-1-2.7-2.1-3.7-3.5C0.2,61.1-6,70.7-6,81.8C-6,88.1,0.6,92,9.2,93.9
			c-0.6,2.8-0.9,5.6-0.9,8.5c0,13.3,21.6,19.2,43,19.2s43-5.9,43-19.2c0-2.9-0.3-5.8-0.9-8.5C102.1,92,108.6,88.1,108.6,81.8z"/>
		<path class="st0" d="M23.5,58.8c1.1,0,2.2-0.1,3.2-0.3c-0.7-1.5-1.3-3-1.7-4.6c-0.5,0.1-0.9,0.1-1.4,0.1
			c-5.7,0-10.3-4.6-10.3-10.3s4.6-10.3,10.3-10.3c1.2,0,2.4,0.2,3.4,0.6c0.7-1.5,1.6-2.8,2.6-4.1c-1.9-0.8-3.9-1.3-6-1.3
			c-8.3,0-15.1,6.8-15.1,15.1S15.1,58.8,23.5,58.8z"/>
		<path class="st0" d="M79.2,33.4c5.7,0,10.3,4.6,10.3,10.3s-4.6,10.3-10.3,10.3c-0.5,0-1-0.1-1.4-0.1c-0.4,1.6-1,3.1-1.7,4.6
			c1,0.2,2.1,0.3,3.2,0.3c8.3,0,15.1-6.8,15.1-15.1s-6.8-15.1-15.1-15.1c-2.1,0-4.2,0.5-6,1.3c1,1.3,1.9,2.7,2.6,4.1
			C76.8,33.6,78,33.4,79.2,33.4z"/>
		<path class="st0" d="M51.3,66.8c11.8,0,21.5-9.6,21.5-21.5s-9.6-21.5-21.5-21.5s-21.5,9.6-21.5,21.5S39.5,66.8,51.3,66.8z
			 M51.3,28.6c9.2,0,16.7,7.5,16.7,16.7S60.5,62,51.3,62s-16.7-7.5-16.7-16.7S42.1,28.6,51.3,28.6z"/>
	</g>
</g>
</svg>
