<?xml version="1.0" encoding="utf-8"?>
<!-- Generator: Adobe Illustrator 24.0.3, SVG Export Plug-In . SVG Version: 6.00 Build 0)  -->
<svg version="1.1" id="Layer_1" xmlns="http://www.w3.org/2000/svg" xmlns:xlink="http://www.w3.org/1999/xlink" x="0px" y="0px"
	 viewBox="0 0 275.4 198.6" style="enable-background:new 0 0 275.4 198.6;" xml:space="preserve">
<g id="SvgjsG2700" transform="matrix(1.2777777777777777,0,0,1.2777777777777777,73.61111111111111,0.6111111111111116)">
	<path d="M50.2,9.5c-37.4,0-67.8,30.4-67.8,67.8c0,37.4,30.4,67.8,67.8,67.8s67.8-30.4,67.8-67.8C117.9,39.9,87.5,9.5,50.2,9.5z
		 M50.2,137.4c-33.2,0-60.2-27-60.2-60.2c0-21.1,10.9-39.7,27.4-50.5c0.1,2.2,3.3,3.6,2.4,6.3c-0.5,1.5-1.8,2.5-2.3,4
		c-0.5,1.4-0.4,3-1,4.4c-1,2.3-3.4,3.6-4.8,5.6c-1.3,2-1.7,4.4-1.6,6.7c0.1,2.8,2,5.1,2.9,7.6c1.1,3,1.7,6.2,2.2,9.4
		c0.9,6.9,10.1,7.3,14.4,10.9c1.9,1.6,2.9,4.1,4.8,5.6c1,0.8,3.7,1.9,3.7-0.4c-0.1-1.6-1.2-2.9-2-4.3c-0.6-1.1-0.9-2.5-2.1-3.1
		c-0.8-0.4-1.8-0.3-2.5-0.8c-1.3-0.8-0.6-2.4-1-3.6c-1.1-3.2-6,1.5-7.8-2.1c-2-4.1,1.1-8.5,5.1-9.5c2.1-0.5,4-0.1,6,0.6
		c1.1,0.5,2.8,1.8,4.1,1.7c1.7-0.1,1.5-3.8,3-4.9c1.2-0.9,2.4-1.6,3.4-2.7c2.4-2.7,3.8-5.3,7.4-6.6c2.6-0.9,7-3.1,8.4-5.6
		c1.3-2.3-2.3-5.7-3.9-7c-1.3-1-3.2-1.7-4.1-3.2c-1-1.8,0.2-3.5,1.5-4.7c1.9-1.7,3.4,0.4,4.5,1.8c0.9,1.2,4.6,3.9,6.1,2.2
		c1.2-1.4-0.6-4.2,0-6c0.6-1.6,1.4-3,0-4.4c0-0.1-0.1-0.1-0.2-0.2c-0.9-0.8-2.1-1.2-3-1.9c-1.8-1.5-3-3.5-4.1-5.6
		c5.2,0.6,10.1,1.8,14.8,3.6c0,0.3,0,0.7,0.1,1c0.3,0.8,1,1.3,1.6,1.7c1.5,1.1,2.7,2.3,4,3.6c2.5,2.5,6.9,2.6,8.4,6.2
		c0.7,1.7,0.3,3.8,1.5,5.2c1,1.2,2.4,1.7,2.3,3.5c-0.1,1.4-0.6,3,1.4,2.9c0.8,0,1.6-0.4,2.1-1c0.6-0.9,0-2.1-0.1-3.1
		c-0.1-3.2,3.4,0.2,4.9-0.1c1.5,2,2.9,4.1,4.2,6.3c-0.3,0.1-0.6,0.3-1,0.2c-0.7-0.1-1.3-1-1.9-1.3c-1.9-1.1-2.4,0.8-3,2.3
		c-0.6,1.5-1.7,3-2,4.6c-0.4,2.1,0.6,4.5,0.7,6.7c0.1,2.3-0.1,4.7,0.4,7c0.7,3.3,2,6.5,3.5,9.6c0.8,1.6,2.1,6.1,4.5,5.6
		c1.4-0.3,1.9-2,2.9-2.8c1.4-1.1,2.5-0.2,3.8,0.2C109.2,111.6,82.6,137.4,50.2,137.4z"/>
	<path d="M81.5,97.8c-4.7-1.7-9.2-0.4-13.3-3.8c-4.7-4-8.6-7.1-14.7-8.6c-4.4-1.1-8.5-1.8-11.6,2c-2.9,3.6-5,8.8-4.6,13.4
		c0.5,5.3,5.1,9.5,9.1,12.5c1.6,1.3,2.2,3,2,5c-0.4,6.7-8,13.1-2.9,16c1.8,1,4.1-1.4,5.3-2.5c4.8-4.3,11.1-6,16.2-9.9
		c1.8-1.4,3.1-3.3,4.9-4.7c1.6-1.3,3.6-1.9,5.1-3.2c1.9-1.6,1.9-3.5,2.8-5.7c0.5-1.2,1.4-1.9,2.2-2.9C84.4,103,85.5,99.3,81.5,97.8z
		"/>
</g>
</svg>
