<?xml version="1.0" encoding="utf-8"?>
<!-- Generator: Adobe Illustrator 24.0.3, SVG Export Plug-In . SVG Version: 6.00 Build 0)  -->
<svg version="1.1" id="Layer_1" xmlns="http://www.w3.org/2000/svg" xmlns:xlink="http://www.w3.org/1999/xlink" x="0px" y="0px"
	 viewBox="0 0 275.4 187.6" style="enable-background:new 0 0 275.4 187.6;" xml:space="preserve">
<g id="SvgjsG1512" transform="matrix(1.4024391548751416,0,0,1.4024391548751416,67.37883136366229,-11.236759300860829)">
	<g transform="translate(0,-952.36218)">
		<path d="M-12.9,965.9c-2.6,0-5,2.5-4.9,5.1v112.6c0,2.6,2.4,5,5,5h46.4c2.6,0,5-2.3,5-5c0-2.6-2.4-5-5-5H-7.9V971
			C-7.8,968.3-10.2,965.9-12.9,965.9z M113,965.9c-1.8,0.1-3.5,1.2-4.2,2.8l-35.4,69.2l-9-7l-11.1-33.3c-0.6-1.9-2.5-3.3-4.5-3.4
			c-2-0.1-4,1.2-4.8,3l-21.6,50.3l-3.1-3.7c-1-1.2-2.7-1.9-4.2-1.8c-1.6,0.1-3.1,1.1-3.9,2.5l-11.6,19.9c-1.3,2.2-0.5,5.5,1.8,6.8
			c2.3,1.3,5.5,0.5,6.8-1.8l8-13.8l3.7,4.4c1.1,1.3,2.9,2,4.5,1.7c1.7-0.2,3.2-1.4,3.9-2.9l19.7-45.9l7.5,22.4
			c0.3,0.9,0.9,1.7,1.7,2.3l14.9,11.6c2.3,1.8,6.1,0.9,7.5-1.7l38.1-74.5c0.8-1.5,0.7-3.5-0.2-5C116.4,966.8,114.7,965.9,113,965.9
			L113,965.9z M49.6,1078.6c-2.6,0.1-4.8,2.6-4.7,5.2c0.1,2.6,2.6,4.8,5.2,4.7h53c2.6,0,5-2.3,5-5c0-2.6-2.4-5-5-5
			C85.3,1078.6,67.4,1078.6,49.6,1078.6z"/>
	</g>
</g>
</svg>
