<?xml version="1.0" encoding="utf-8"?>
<!-- Generator: Adobe Illustrator 24.0.3, SVG Export Plug-In . SVG Version: 6.00 Build 0)  -->
<svg version="1.1" id="Layer_1" xmlns="http://www.w3.org/2000/svg" xmlns:xlink="http://www.w3.org/1999/xlink" x="0px" y="0px"
	 viewBox="0 0 275.4 244.6" style="enable-background:new 0 0 275.4 244.6;" xml:space="preserve">
<g id="SvgjsG2497" transform="matrix(3.502040592526919,0,0,3.502040592526919,53.45103078906319,3.497959407473081)">
	<g>
		<path d="M26.3,28.8v-8.3c4.1,0.6,6.5,2.7,6.5,4h10.4c0-7.6-7.3-13.6-16.9-14.5v-3h-4.5v3C12.2,10.9,4.9,17,4.9,24.6
			c0,7.6,7.3,13.6,16.9,14.5v8.3c-4.1-0.6-6.5-2.7-6.5-4H4.9c0,7.6,7.3,13.6,16.9,14.5v3h4.5v-3c9.6-0.8,16.9-6.9,16.9-14.5
			C43.2,35.7,35.9,29.6,26.3,28.8z M15.3,24.6c0-1.3,2.4-3.4,6.5-4v8C17.7,28,15.3,25.8,15.3,24.6z M26.3,47.3v-8
			c4.1,0.6,6.5,2.7,6.5,4C32.8,44.5,30.4,46.7,26.3,47.3z"/>
	</g>
</g>
</svg>
