<svg xmlns="http://www.w3.org/2000/svg" viewBox="0 0 948.9 263.73"><defs><style>.cls-1,.cls-2{font-size:145.37px;}.cls-1,.cls-2,.cls-4{fill:#fff;}.cls-1,.cls-19,.cls-2,.cls-4{stroke:#fff;}.cls-1{font-family:MADEEvolveSans-Bold, MADE Evolve Sans;font-weight:700;}.cls-2{font-family:MADEEvolveSans-Light, MADE Evolve Sans;font-weight:300;}.cls-3{letter-spacing:-0.02em;}.cls-4{font-size:28.27px;font-family:NexaBold, Nexa Bold;letter-spacing:0.08em;}.cls-5{letter-spacing:0.05em;}.cls-6{letter-spacing:0.07em;}.cls-7{letter-spacing:0.05em;}.cls-8{letter-spacing:0.08em;}.cls-9{letter-spacing:0.05em;}.cls-10{letter-spacing:-0.05em;}.cls-11{letter-spacing:0.05em;}.cls-12{letter-spacing:0.08em;}.cls-13{letter-spacing:0.07em;}.cls-14{letter-spacing:0.06em;}.cls-15{letter-spacing:0.06em;}.cls-16{letter-spacing:0.08em;}.cls-17,.cls-18{font-size:36.34px;}.cls-17{letter-spacing:0.01em;}.cls-18{letter-spacing:0.05em;}.cls-19{fill:none;stroke-miterlimit:10;stroke-width:6px;}</style></defs><title>whiteLogo</title><g id="Layer_2" data-name="Layer 2"><g id="Layer_1-2" data-name="Layer 1"><text class="cls-1" transform="translate(486.57 176.12)">CARE</text><text class="cls-2" transform="translate(79.41 176.12)"><tspan class="cls-3">C</tspan><tspan x="104.52" y="0">ORP</tspan></text><text class="cls-4" transform="translate(61.54 252.03)">C<tspan class="cls-5" x="20.94" y="0">ONNE</tspan><tspan class="cls-6" x="106.73" y="0">C</tspan><tspan class="cls-7" x="127.39" y="0">TING </tspan><tspan class="cls-8" x="205.54" y="0">C</tspan><tspan class="cls-9" x="226.49" y="0">ORPOR</tspan><tspan class="cls-10" x="335.2" y="0">A</tspan><tspan class="cls-11" x="354.84" y="0">TE </tspan><tspan class="cls-12" x="399.81" y="0">CI</tspan><tspan class="cls-11" x="430.34" y="0">T</tspan><tspan class="cls-13" x="449.13" y="0">I</tspan><tspan class="cls-11" x="458.38" y="0">Z</tspan><tspan class="cls-13" x="476.35" y="0">E</tspan><tspan class="cls-14" x="496" y="0">N</tspan><tspan class="cls-9" x="517.88" y="0">S </tspan><tspan class="cls-15" x="545.09" y="0">A</tspan><tspan class="cls-11" x="567.99" y="0">ND </tspan><tspan class="cls-8" x="617.96" y="0">C</tspan><tspan class="cls-9" x="638.91" y="0">OMMUN</tspan><tspan class="cls-16" x="758.27" y="0">I</tspan><tspan class="cls-11" x="767.83" y="0">TI</tspan><tspan class="cls-13" x="795.27" y="0">E</tspan><tspan class="cls-9" x="814.92" y="0">S</tspan><tspan class="cls-17" x="835.01" y="0"> </tspan><tspan class="cls-18" x="842.72" y="0"> </tspan></text><polyline class="cls-19" points="39.03 252.15 3 252.15 3 3 945.9 3 945.9 252.15 909.88 252.15"/></g></g></svg>